<svg width="21" height="24" viewBox="0 0 21 24" fill="none" xmlns="http://www.w3.org/2000/svg">
<path d="M15.4003 10.5469H14.0003V9.84375C14.0003 7.90533 12.4301 6.32812 10.5003 6.32812C8.57053 6.32812 7.00034 7.90533 7.00034 9.84375V10.5469H5.60034V16.2656H15.4003V10.5469ZM12.6003 10.5469H11.2003V13.3594H9.80034V10.5469H8.40034V9.84375C8.40034 8.68059 9.34235 7.73438 10.5003 7.73438C11.6583 7.73438 12.6003 8.68059 12.6003 9.84375V10.5469Z" fill="white"/>
<path d="M0 17.6719C0 18.835 0.942013 19.7812 2.1 19.7812C2.66471 19.7812 3.1759 19.5536 3.55367 19.1881L8.42571 21.635C8.4154 21.7197 8.4 21.8031 8.4 21.8906C8.4 23.0538 9.34201 24 10.5 24C11.658 24 12.6 23.0538 12.6 21.8906C12.6 21.8031 12.5846 21.7197 12.5743 21.635L17.4463 19.1881C17.8241 19.5536 18.3353 19.7812 18.9 19.7812C20.058 19.7812 21 18.835 21 17.6719C21 16.7564 20.413 15.9832 19.6 15.692V8.30798C20.413 8.01675 21 7.24359 21 6.32812C21 5.16497 20.058 4.21875 18.9 4.21875C18.3353 4.21875 17.8241 4.44637 17.4463 4.81186L12.5743 2.36498C12.5846 2.28028 12.6 2.19694 12.6 2.10938C12.6 0.946219 11.658 0 10.5 0C9.34201 0 8.4 0.946219 8.4 2.10938C8.4 2.19694 8.4154 2.28028 8.42571 2.36498L3.55367 4.81186C3.1759 4.44637 2.66471 4.21875 2.1 4.21875C0.942013 4.21875 0 5.16497 0 6.32812C0 7.24359 0.586973 8.01675 1.4 8.30798V15.692C0.586973 15.9832 0 16.7564 0 17.6719ZM2.8 8.30798C3.61303 8.01675 4.2 7.24359 4.2 6.32812C4.2 6.24056 4.1846 6.15722 4.17429 6.07252L9.04633 3.62564C9.4241 3.99113 9.93529 4.21875 10.5 4.21875C11.0647 4.21875 11.5759 3.99113 11.9537 3.62564L16.8257 6.07252C16.8154 6.15722 16.8 6.24056 16.8 6.32812C16.8 7.24359 17.387 8.01675 18.2 8.30798V15.692C17.387 15.9832 16.8 16.7564 16.8 17.6719C16.8 17.7594 16.8154 17.8428 16.8257 17.9275L11.9537 20.3744C11.5759 20.0089 11.0647 19.7812 10.5 19.7812C9.93529 19.7812 9.4241 20.0089 9.04633 20.3744L4.17429 17.9275C4.1846 17.8428 4.2 17.7594 4.2 17.6719C4.2 16.7564 3.61303 15.9832 2.8 15.692V8.30798Z" fill="white"/>
</svg>
