<svg width="16" height="16" viewBox="0 0 16 16" fill="none" xmlns="http://www.w3.org/2000/svg">
  <g clip-path="url(#clip0_280_9192)">
    <path d="M7.55772 11.308L8.44162 12.1918L12.6334 8.00005L8.44162 3.80829L7.55772 4.69213L10.2407 7.37508H0V8.62503H10.2407L7.55772 11.308Z" fill="#19337E"/>
    <path d="M14.1254 0.000244141H1.8759C0.842067 0.000244141 0.000976562 0.841335 0.000976562 1.87517V4.87504H1.25093V1.87517C1.25093 1.53056 1.53129 1.25019 1.8759 1.25019H14.1254C14.47 1.25019 14.7504 1.53056 14.7504 1.87517V14.1247C14.7504 14.4693 14.47 14.7496 14.1254 14.7496H1.8759C1.53129 14.7496 1.25093 14.4693 1.25093 14.1247V11.1248H0.000976562V14.1247C0.000976562 15.1585 0.842067 15.9996 1.8759 15.9996H14.1254C15.1592 15.9996 16.0003 15.1585 16.0003 14.1247V1.87517C16.0003 0.841335 15.1592 0.000244141 14.1254 0.000244141Z" fill="#19337E"/>
  </g>
  <defs>
    <clipPath id="clip0_280_9192">
      <rect width="16" height="16" fill="white"/>
    </clipPath>
  </defs>
</svg>
