<svg width="24" height="24" viewBox="0 0 24 24" fill="none" xmlns="http://www.w3.org/2000/svg">
<g clip-path="url(#clip0_436_12791)">
<path d="M23.5579 14.8627L16.5267 12.0503C16.3663 11.9865 16.174 11.9825 16.0044 12.0503L15.5624 12.227V4.26561C15.5624 3.8773 15.2476 3.56249 14.8593 3.56249H11.2968V1.45312C11.2968 1.06481 10.982 0.75 10.5937 0.75H4.96873C4.58042 0.75 4.26561 1.06481 4.26561 1.45312V3.56249H0.703122C0.314811 3.56249 0 3.8773 0 4.26561V14.1093C0 14.4976 0.314811 14.8124 0.703122 14.8124H9.09892L8.9732 14.8627C8.39069 15.0972 8.37986 15.9311 8.9732 16.1684L11.3437 17.1166V22.5468C11.3437 22.9351 11.6585 23.2499 12.0468 23.2499H20.4843C20.8726 23.2499 21.1874 22.9351 21.1874 22.5468V17.1166L22.5937 16.5541V21.1405C22.5937 21.5289 22.9085 21.8437 23.2968 21.8437C23.6851 21.8437 23.9999 21.5289 23.9999 21.1405V15.5297C24.0046 15.2268 23.8208 14.9696 23.5579 14.8627ZM16.2656 17.5707C15.9714 17.453 11.4279 15.6357 11.1276 15.5156C11.7357 15.2723 15.7323 13.6737 16.2656 13.4604L21.4036 15.5156C21.1032 15.6357 16.5599 17.453 16.2656 17.5707ZM4.21873 9.18747H5.79279C6.08304 10.0058 6.86458 10.5937 7.78122 10.5937C8.69786 10.5937 9.4794 10.0058 9.76965 9.18747H11.3437V13.4062H4.21873V9.18747ZM8.48434 8.48434C8.48434 8.87205 8.16892 9.18747 7.78122 9.18747C7.39352 9.18747 7.0781 8.87205 7.0781 8.48434V7.78122H8.48434V8.48434ZM12.75 13.352V9.11669C13.2692 9.01084 13.7472 8.79011 14.1562 8.48238V12.7895L12.75 13.352ZM5.67185 2.15624H9.89059V3.56249H5.67185V2.15624ZM1.40624 4.96873H14.1562V5.67186C14.1562 6.83496 13.2099 7.78122 12.0468 7.78122H9.89059V7.0781C9.89059 6.68979 9.57578 6.37498 9.18746 6.37498H6.37498C5.98666 6.37498 5.67185 6.68979 5.67185 7.0781V7.78122H3.51561C2.35251 7.78122 1.40624 6.83496 1.40624 5.67186V4.96873ZM1.40624 8.48242C1.81523 8.79016 2.29321 9.01089 2.81249 9.11673V13.4062H1.40624V8.48242ZM19.7812 21.8437H12.75V17.6791L16.0044 18.9809C16.1735 19.0485 16.3608 19.047 16.5267 18.9809L19.7812 17.6791V21.8437Z" fill="white"/>
</g>
<defs>
<clipPath id="clip0_436_12791">
<rect width="24" height="24" fill="white"/>
</clipPath>
</defs>
</svg>
