<svg width="24" height="24" viewBox="0 0 24 24" fill="none" xmlns="http://www.w3.org/2000/svg">
<g clip-path="url(#clip0_414_9162)">
<path d="M23.2322 0.277405H10.474C10.0496 0.277405 9.7063 0.621775 9.7063 1.04559V6.46391L10.2614 5.81489C10.525 5.50632 10.8725 5.31604 11.2418 5.23655V1.81349H22.4643V11.844H11.2419V10.1649L10.8961 10.5692C10.594 10.9218 10.1675 11.1406 9.7063 11.1837V12.612C9.7063 13.0358 10.0496 13.3797 10.474 13.3797H14.6175L12.5125 22.9368C12.4182 23.3654 12.689 23.7892 13.1179 23.8838C13.543 23.9772 13.9704 23.7072 14.0638 23.2791L16.244 13.3798H17.5115L19.6917 23.2791C19.7734 23.6497 20.1021 23.9026 20.4667 23.9021C20.5233 23.9021 20.5812 23.8964 20.6385 23.8838C21.0674 23.7892 21.3382 23.3654 21.2431 22.9368L19.1382 13.3797H23.2322C23.6563 13.3797 24 13.0358 24 12.612V1.04559C23.9999 0.621775 23.6562 0.277405 23.2322 0.277405Z" fill="white"/>
<path d="M17.1335 4.7627C17.073 4.61018 16.9014 4.5353 16.749 4.59567L12.2257 6.19222C11.8106 5.8708 11.2116 5.92823 10.8655 6.33086L9.43015 8.00701L8.15747 6.91607C8.16586 7.00616 8.18493 7.0937 8.18493 7.18615V9.55442L8.893 10.1611C9.31319 10.521 9.94175 10.4654 10.2931 10.0533L12.0018 8.05521L13.3799 7.24902L17.0065 5.12713C17.1319 5.05485 17.1875 4.90036 17.1335 4.7627Z" fill="white"/>
<path d="M5.39107 5.18744H4.53868C3.88603 5.18744 3.31215 5.50464 2.94738 5.98814L0.330906 8.39707C-0.0767774 8.76022 -0.113755 9.38928 0.253371 9.79941L2.38806 12.1821C2.75199 12.5896 3.38198 12.6256 3.78962 12.2594C4.19833 11.8931 4.23286 11.2657 3.86661 10.8575L2.39522 9.2144L4.48517 7.34424L3.26796 8.99797L4.45864 10.3273C5.11659 11.0626 5.05455 12.1923 4.31966 12.8507C3.81791 13.3005 3.13319 13.406 2.53959 13.1986C2.53959 13.1986 2.54881 17.7918 2.54881 22.7108C2.54881 23.3687 3.08209 23.9021 3.74008 23.9021C4.39739 23.9021 4.93135 23.3687 4.93135 22.7108C4.93135 17.7933 4.93135 20.5995 4.93135 15.611H5.72598C5.72598 20.5959 5.72598 17.7918 5.72598 22.7108C5.72598 23.0543 5.6302 23.3724 5.47748 23.6539C5.67738 23.8077 5.92612 23.9021 6.19722 23.9021C6.85555 23.9021 7.38883 23.3687 7.38883 22.7108C7.38883 17.7933 7.39035 19.8548 7.39035 7.18613C7.39045 6.08225 6.49559 5.18744 5.39107 5.18744Z" fill="white"/>
<path d="M3.90324 4.4725C4.22177 4.63807 4.57938 4.74081 4.96352 4.74081C5.34865 4.74081 5.70626 4.63807 6.02572 4.47221C6.77135 4.08591 7.2853 3.31684 7.2853 2.41923C7.2853 1.13698 6.24582 0.0978394 4.96348 0.0978394C3.68133 0.0978394 2.64209 1.13698 2.64209 2.41923C2.64214 3.31733 3.15663 4.08669 3.90324 4.4725Z" fill="white"/>
</g>
<defs>
<clipPath id="clip0_414_9162">
<rect width="24" height="24" fill="white"/>
</clipPath>
</defs>
</svg>
