<svg width="21" height="21" viewBox="0 0 21 21" fill="none" xmlns="http://www.w3.org/2000/svg">
<path d="M2.83946 5.31794C3.38844 4.93424 4.21599 5.00783 4.70891 5.41489L4.14358 4.59317C3.68862 3.94433 3.85157 3.24233 4.501 2.7868C5.15043 2.33301 6.99067 3.55303 6.99067 3.55303C6.53163 2.89776 6.61748 2.06729 7.27275 1.60766C7.92802 1.14979 8.83209 1.30806 9.29113 1.9645L15.3766 10.5613L14.601 18.0805L8.12834 15.7199L2.48262 7.34916C2.01949 6.6898 2.17952 5.78049 2.83946 5.31794Z" fill="#EF9645"/>
<path d="M1.5746 10.101C1.5746 10.101 0.913492 9.13734 1.87771 8.47681C2.84076 7.81628 3.50128 8.77933 3.50128 8.77933L6.56797 13.2518C6.67368 13.0754 6.78932 12.9013 6.91839 12.7296L2.66205 6.52326C2.66205 6.52326 2.00152 5.56021 2.96515 4.89969C3.9282 4.23916 4.58873 5.20221 4.58873 5.20221L8.59219 11.0407C8.74111 10.9192 8.89354 10.7971 9.05064 10.6774L4.40944 3.90802C4.40944 3.90802 3.74891 2.94497 4.71254 2.28444C5.67559 1.62392 6.33612 2.58697 6.33612 2.58697L10.9773 9.35518C11.1479 9.25064 11.3166 9.16011 11.486 9.06433L7.14791 2.73823C7.14791 2.73823 6.48738 1.77518 7.45043 1.11465C8.41348 0.454126 9.074 1.41718 9.074 1.41718L13.6609 8.10654L14.3582 9.1239C11.4685 11.1061 11.1934 14.835 12.8444 17.243C13.1744 17.7248 13.6562 17.3948 13.6562 17.3948C11.6746 14.5045 12.2797 11.2567 15.17 9.27516L14.3179 5.01065C14.3179 5.01065 13.9996 3.887 15.1227 3.56812C16.2464 3.24983 16.5652 4.37348 16.5652 4.37348L17.5493 7.29592C17.9394 8.45462 18.3547 9.60922 18.9042 10.7013C20.456 13.785 19.5291 17.6173 16.6032 19.6246C13.4115 21.8129 9.04831 20.9994 6.8594 17.8083L1.5746 10.101Z" fill="#FFDC5D"/>
<path d="M7.00926 18.6893C4.67318 18.6893 2.31257 16.3287 2.31257 13.9926C2.31257 13.6696 2.07604 13.4086 1.75308 13.4086C1.43012 13.4086 1.14453 13.6696 1.14453 13.9926C1.14453 17.4967 3.50514 19.8573 7.00926 19.8573C7.33222 19.8573 7.59328 19.5717 7.59328 19.2488C7.59328 18.9258 7.33222 18.6893 7.00926 18.6893Z" fill="#5DADEC"/>
<path d="M4.08814 19.8316C2.33608 19.8316 1.16804 18.6635 1.16804 16.9115C1.16804 16.5885 0.906983 16.3275 0.58402 16.3275C0.261057 16.3275 0 16.5885 0 16.9115C0 19.2476 1.75206 20.9996 4.08814 20.9996C4.4111 20.9996 4.67216 20.7386 4.67216 20.4156C4.67216 20.0926 4.4111 19.8316 4.08814 19.8316ZM14.0165 1.14294C13.6941 1.14294 13.4325 1.40459 13.4325 1.72696C13.4325 2.04934 13.6941 2.31098 14.0165 2.31098C16.3526 2.31098 18.6886 4.40703 18.6886 6.98314C18.6886 7.30552 18.9503 7.56716 19.2727 7.56716C19.595 7.56716 19.8567 7.30552 19.8567 6.98314C19.8567 3.76286 17.5206 1.14294 14.0165 1.14294Z" fill="#5DADEC"/>
<path d="M16.9366 0.000366211C16.6142 0.000366211 16.3525 0.237478 16.3525 0.559857C16.3525 0.882236 16.6142 1.16841 16.9366 1.16841C18.6886 1.16841 19.8321 2.46785 19.8321 4.06398C19.8321 4.38636 20.1177 4.648 20.4407 4.648C20.7636 4.648 21.0002 4.38636 21.0002 4.06398C21.0002 1.82309 19.2726 0.000366211 16.9366 0.000366211Z" fill="#5DADEC"/>
</svg>
