<svg width="37" height="45" viewBox="0 0 37 45" fill="none" xmlns="http://www.w3.org/2000/svg">
<path fill-rule="evenodd" clip-rule="evenodd" d="M18.0732 0.542969C8.13212 0.542969 0.0732422 8.60184 0.0732422 18.543C0.0732422 21.1547 0.945426 24.0563 2.18399 26.8351C3.4366 29.6454 5.13456 32.4858 6.94629 35.0199C8.75562 37.5506 10.7185 39.8317 12.5283 41.5044C13.4307 42.3384 14.3357 43.0591 15.1989 43.5835C16.0076 44.0747 17.0179 44.543 18.0732 44.543C19.1285 44.543 20.1389 44.0747 20.9476 43.5835C21.8108 43.0591 22.7158 42.3384 23.6182 41.5044C25.428 39.8317 27.3909 37.5506 29.2002 35.0199C31.0119 32.4858 32.7099 29.6454 33.9625 26.8351C35.2011 24.0563 36.0732 21.1547 36.0732 18.543C36.0732 8.60184 28.0144 0.542969 18.0732 0.542969ZM18.0732 8.54297C12.5504 8.54297 8.07324 13.0201 8.07324 18.543C8.07324 24.0658 12.5504 28.543 18.0732 28.543C23.5961 28.543 28.0732 24.0658 28.0732 18.543C28.0732 13.0201 23.5961 8.54297 18.0732 8.54297Z" fill="#DDAC25"/>
</svg>
