<svg width="208" height="163" viewBox="0 0 208 163" fill="none" xmlns="http://www.w3.org/2000/svg">
  <g style="mix-blend-mode:multiply">
    <circle cx="8.5" cy="26.8203" r="5.5" fill="#EDEEF1"/>
  </g>
  <g style="mix-blend-mode:multiply">
    <circle cx="11.5" cy="135.82" r="11.5" fill="#EDEEF1"/>
  </g>
  <g style="mix-blend-mode:multiply">
    <circle cx="197" cy="52.3203" r="11" fill="#EDEEF1"/>
  </g>
  <path d="M94.6057 31.1237C92.029 28.547 88.5709 27.123 84.9771 27.123H49.9208C42.462 27.123 36.4272 33.2257 36.4272 40.6845L36.3594 122.053C36.3594 129.512 42.462 135.614 49.9208 135.614H158.412C165.871 135.614 171.974 129.512 171.974 122.053V54.2459C171.974 46.7871 165.871 40.6845 158.412 40.6845H104.166L94.6057 31.1237Z" fill="#B1B0B2"/>
  <circle cx="103.722" cy="86.2595" r="28.4568" fill="#CCCCCC"/>
  <path d="M106.754 97.8108H101.566V99.756H106.754V97.8108ZM92.164 88.4085V83.2211H90.2188V88.4085H92.164ZM116.156 87.8418V88.4085H118.101V87.8418H116.156ZM107.909 76.2323L113.043 80.853L114.344 79.4058L109.211 74.7851L107.909 76.2323ZM118.101 87.8418C118.101 85.6514 118.121 84.2638 117.569 83.024L115.791 83.8164C116.136 84.5919 116.156 85.4802 116.156 87.8418H118.101ZM113.043 80.853C114.798 82.4326 115.447 83.0421 115.791 83.8164L117.569 83.024C117.017 81.7829 115.973 80.8712 114.344 79.4058L113.043 80.853ZM101.605 73.8189C103.657 73.8189 104.431 73.8345 105.12 74.099L105.817 72.2834C104.712 71.858 103.509 71.8736 101.605 71.8736V73.8189ZM109.211 74.7863C107.803 73.5193 106.922 72.7062 105.817 72.2834L105.121 74.099C105.811 74.3636 106.392 74.8668 107.909 76.2323L109.211 74.7863ZM101.566 97.8108C99.0931 97.8108 97.3372 97.8082 96.0027 97.6292C94.6994 97.4541 93.9472 97.1247 93.3986 96.5762L92.024 97.9508C92.994 98.9235 94.2247 99.3527 95.7447 99.5576C97.236 99.7586 99.1489 99.756 101.566 99.756V97.8108ZM90.2188 88.4085C90.2188 90.8259 90.2162 92.7375 90.4172 94.2301C90.6221 95.7501 91.0526 96.9808 92.0227 97.9521L93.3973 96.5774C92.8501 96.0276 92.5207 95.2754 92.3456 93.9708C92.1666 92.6389 92.164 90.8816 92.164 88.4085H90.2188ZM106.754 99.756C109.171 99.756 111.083 99.7586 112.575 99.5576C114.095 99.3527 115.326 98.9222 116.297 97.9521L114.923 96.5774C114.373 97.1247 113.621 97.4541 112.316 97.6292C110.984 97.8082 109.227 97.8108 106.754 97.8108V99.756ZM116.156 88.4085C116.156 90.8816 116.153 92.6389 115.974 93.9721C115.799 95.2754 115.47 96.0276 114.921 96.5762L116.296 97.9508C117.269 96.9808 117.698 95.7501 117.903 94.2301C118.104 92.7387 118.101 90.8259 118.101 88.4085H116.156ZM92.164 83.2211C92.164 80.748 92.1666 78.9921 92.3456 77.6576C92.5207 76.3543 92.8501 75.6021 93.3986 75.0535L92.024 73.6788C91.0513 74.6489 90.6221 75.8796 90.4172 77.3995C90.2162 78.8909 90.2188 80.8038 90.2188 83.2211H92.164ZM101.605 71.8736C99.1736 71.8736 97.2529 71.871 95.755 72.072C94.2286 72.2769 92.994 72.7075 92.0227 73.6775L93.3973 75.0522C93.9472 74.5049 94.7007 74.1755 96.0131 74.0005C97.3528 73.8215 99.1191 73.8189 101.605 73.8189V71.8736Z" fill="white"/>
  <path opacity="0.5" d="M105.453 73.4946V76.7368C105.453 79.7935 105.453 81.3225 106.402 82.2718C107.352 83.2211 108.881 83.2211 111.937 83.2211H117.125" stroke="white" stroke-width="1.5"/>
  <g style="mix-blend-mode:multiply">
    <circle cx="158.5" cy="20.8203" r="4.5" fill="#EDEEF1"/>
  </g>
</svg>
