<svg
  class="absolute cursor-pointer bottom-2 right-0 mr-3 top-20"
  width="25"
  height="24"
  viewBox="0 0 25 24"
  fill="none"
  xmlns="http://www.w3.org/2000/svg"
>
  <path
    fill-rule="evenodd"
    clip-rule="evenodd"
    d="M8.75 12C8.75 11.0054 9.14509 10.0516 9.84835 9.34835C10.5516 8.64509 11.5054 8.25 12.5 8.25C13.4946 8.25 14.4484 8.64509 15.1517 9.34835C15.8549 10.0516 16.25 11.0054 16.25 12C16.25 12.9946 15.8549 13.9484 15.1517 14.6517C14.4484 15.3549 13.4946 15.75 12.5 15.75C11.5054 15.75 10.5516 15.3549 9.84835 14.6517C9.14509 13.9484 8.75 12.9946 8.75 12ZM12.5 9.75C11.9033 9.75 11.331 9.98705 10.909 10.409C10.4871 10.831 10.25 11.4033 10.25 12C10.25 12.5967 10.4871 13.169 10.909 13.591C11.331 14.0129 11.9033 14.25 12.5 14.25C13.0967 14.25 13.669 14.0129 14.091 13.591C14.5129 13.169 14.75 12.5967 14.75 12C14.75 11.4033 14.5129 10.831 14.091 10.409C13.669 9.98705 13.0967 9.75 12.5 9.75Z"
    fill="#969696"
  />
  <path
    fill-rule="evenodd"
    clip-rule="evenodd"
    d="M4.823 10.646C4.404 11.25 4.25 11.723 4.25 12C4.25 12.277 4.404 12.75 4.823 13.354C5.229 13.937 5.831 14.57 6.593 15.155C8.12 16.327 10.213 17.25 12.5 17.25C14.787 17.25 16.88 16.327 18.407 15.155C19.169 14.57 19.771 13.937 20.177 13.354C20.596 12.75 20.75 12.277 20.75 12C20.75 11.723 20.596 11.25 20.177 10.646C19.771 10.063 19.169 9.43 18.407 8.845C16.88 7.673 14.787 6.75 12.5 6.75C10.213 6.75 8.12 7.673 6.593 8.845C5.831 9.43 5.229 10.063 4.823 10.646ZM5.679 7.655C7.41 6.327 9.816 5.25 12.5 5.25C15.184 5.25 17.59 6.327 19.32 7.655C20.187 8.32 20.903 9.062 21.409 9.791C21.901 10.5 22.25 11.277 22.25 12C22.25 12.723 21.9 13.5 21.409 14.209C20.903 14.938 20.187 15.679 19.321 16.345C17.591 17.673 15.184 18.75 12.5 18.75C9.816 18.75 7.41 17.673 5.68 16.345C4.813 15.68 4.097 14.938 3.591 14.209C3.1 13.5 2.75 12.723 2.75 12C2.75 11.277 3.1 10.5 3.591 9.791C4.097 9.062 4.813 8.321 5.679 7.655Z"
    fill="#969696"
  />
</svg>
