<svg width="20" height="20" viewBox="0 0 20 20" fill="none" xmlns="http://www.w3.org/2000/svg">
<path d="M19.6315 12.3855L13.7721 10.0418C13.6325 9.98567 13.4768 9.98567 13.3372 10.0418L7.47785 12.3855C7.25527 12.4748 7.10938 12.6899 7.10938 12.9297C7.10938 13.1695 7.25527 13.3846 7.47789 13.4739L13.3373 15.8176C13.4746 15.8728 13.6321 15.8739 13.7721 15.8176L18.8281 13.7952V17.6172C18.8281 17.9411 19.0902 18.2031 19.4141 18.2031C19.7379 18.2031 20 17.9411 20 17.6172V12.9297C20 12.7088 19.8287 12.4644 19.6315 12.3855Z" fill="white"/>
<path d="M1.75781 6.48438H4.6875V5.89844C4.6875 5.57457 4.94957 5.3125 5.27344 5.3125H7.61719C7.94105 5.3125 8.20312 5.57457 8.20312 5.89844V6.48438H11.1328C12.1021 6.48438 12.8906 5.69586 12.8906 4.72656V3.55469C12.8906 3.23082 12.6286 2.96875 12.3047 2.96875H9.375V1.21094C9.375 0.88707 9.11293 0.625 8.78906 0.625H4.10156C3.7777 0.625 3.51562 0.88707 3.51562 1.21094V2.96875H0.585938C0.26207 2.96875 0 3.23082 0 3.55469V4.72656C0 5.69586 0.788516 6.48438 1.75781 6.48438ZM4.6875 1.79688H8.20312V2.96875H4.6875V1.79688Z" fill="white"/>
<path d="M6.44531 7.65625C6.76859 7.65625 7.03125 7.39359 7.03125 7.07031V6.48438H5.85938V7.07031C5.85938 7.39359 6.12203 7.65625 6.44531 7.65625Z" fill="white"/>
<path d="M0.585938 12.3438H5.96824C6.13332 11.877 6.48352 11.4902 6.96375 11.2978C9.56953 10.261 12.2915 9.15352 12.8906 8.94055V7.05536C12.3995 7.42716 11.7948 7.65626 11.1328 7.65626H8.0952C7.8525 8.3368 7.2082 8.82813 6.44531 8.82813C5.68242 8.82813 5.03813 8.3368 4.79543 7.65626H1.75781C1.09578 7.65626 0.491172 7.42716 0 7.05536V11.7578C0 12.0817 0.26207 12.3438 0.585938 12.3438Z" fill="white"/>
<path d="M17.0703 19.375C17.3942 19.375 17.6562 19.1129 17.6562 18.789V15.5263L14.2076 16.9059C13.7924 17.0722 13.3206 17.0743 12.9007 16.9048L9.45312 15.5262V18.789C9.45312 19.1129 9.7152 19.375 10.0391 19.375H17.0703Z" fill="white"/>
</svg>
