<svg width="31" height="30" viewBox="0 0 31 30" fill="none" xmlns="http://www.w3.org/2000/svg">
<path d="M30.4039 8.73095V27.3435C30.4039 28.8109 29.2148 30 27.7479 30H6.90203C5.43525 30 4.24609 28.8109 4.24609 27.3435V2.65677C4.24609 1.18935 5.4352 0.000244141 6.90203 0.000244141H21.6737C22.5538 0.000244141 23.3983 0.350342 24.0212 0.972666L29.4314 6.38292C30.0544 7.00583 30.4039 7.85028 30.4039 8.73095Z" fill="#F1F4F6"/>
<path d="M25.915 15.2728H17.5621C17.312 15.2728 17.1094 15.0701 17.1094 14.8201C17.1094 14.5701 17.312 14.3674 17.5621 14.3674H25.915C26.165 14.3674 26.3677 14.5701 26.3677 14.8201C26.3677 15.0701 26.165 15.2728 25.915 15.2728Z" fill="#A3B8BF"/>
<path d="M25.9148 18.2596H18.1607C17.9107 18.2596 17.708 18.057 17.708 17.8069C17.708 17.5569 17.9107 17.3542 18.1607 17.3542H25.9148C26.1648 17.3542 26.3675 17.5569 26.3675 17.8069C26.3675 18.057 26.1648 18.2596 25.9148 18.2596Z" fill="#A3B8BF"/>
<path d="M25.9148 21.2462H18.1607C17.9107 21.2462 17.708 21.0435 17.708 20.7935C17.708 20.5435 17.9107 20.3408 18.1607 20.3408H25.9148C26.1648 20.3408 26.3675 20.5435 26.3675 20.7935C26.3675 21.0435 26.1648 21.2462 25.9148 21.2462Z" fill="#A3B8BF"/>
<path d="M19.7627 18.2223V24.3116C19.7627 25.7174 18.623 26.857 17.2172 26.857H4.24609V15.6763H17.2172C18.623 15.6763 19.7627 16.8159 19.7627 18.2223Z" fill="#D4E1E6"/>
<path d="M8.80943 29.9998H6.90262C5.4352 29.9998 4.24609 28.8107 4.24609 27.3432V2.65652C4.24609 1.1891 5.4352 0 6.90262 0H8.80943C7.34266 0 6.1535 1.1891 6.1535 2.65652V27.3432C6.1535 28.8107 7.34266 29.9998 8.80943 29.9998Z" fill="#D4E1E6"/>
<path d="M30.4039 8.73113V9.29791C30.4039 8.22529 29.5341 7.35547 28.4615 7.35547H25.7048C24.238 7.35547 23.0489 6.16637 23.0489 4.69959V1.94293C23.0489 0.870313 22.1791 0.000488281 21.1064 0.000488281H21.6732C22.5539 0.000488281 23.3983 0.350586 24.0213 0.97291L29.4315 6.38311C30.0538 7.00602 30.4039 7.85047 30.4039 8.73113Z" fill="#D4E1E6"/>
<path d="M18.0298 13.9148H2.95008C1.54406 13.9148 0.404297 15.0546 0.404297 16.4606V22.55C0.404297 23.956 1.54406 25.0958 2.95008 25.0958H18.0298C19.4358 25.0958 20.5755 23.956 20.5755 22.55V16.4606C20.5755 15.0546 19.4358 13.9148 18.0298 13.9148Z" fill="#DD636E"/>
<path d="M5.55375 25.0959H2.94973C1.54389 25.0959 0.404297 23.9563 0.404297 22.5499V16.4606C0.404297 15.0548 1.54395 13.9146 2.94973 13.9146H5.55375C4.14791 13.9146 3.00768 15.0548 3.00768 16.4606V22.5499C3.00768 23.9563 4.14791 25.0959 5.55375 25.0959Z" fill="#DA4A54"/>
<path d="M16.613 17.193C16.863 17.193 17.0657 16.9903 17.0657 16.7403C17.0657 16.4903 16.863 16.2876 16.613 16.2876H14.355C14.105 16.2876 13.9023 16.4903 13.9023 16.7403V22.3114C13.9023 22.5614 14.105 22.7641 14.355 22.7641C14.6051 22.7641 14.8077 22.5614 14.8077 22.3114V19.9258H16.4336C16.6836 19.9258 16.8863 19.7231 16.8863 19.4731C16.8863 19.2231 16.6836 19.0204 16.4336 19.0204H14.8077V17.193H16.613V17.193Z" fill="#F1F4F6"/>
<path d="M10.4864 16.4126H8.94391C8.82367 16.4126 8.70842 16.4604 8.62352 16.5455C8.53856 16.6306 8.49098 16.7459 8.49121 16.8662C8.49121 16.8662 8.49514 18.9614 8.49514 19.5824C8.49514 20.331 8.50217 22.2934 8.50223 22.3131C8.5027 22.4332 8.55074 22.5482 8.636 22.6328C8.72084 22.717 8.83545 22.7642 8.95492 22.7642H8.95662C9.00314 22.764 10.1015 22.7598 10.5394 22.7521C11.3068 22.7387 11.9901 22.3911 12.4635 21.7733C12.8987 21.2053 13.1384 20.4293 13.1384 19.5884C13.1385 17.6888 12.0726 16.4126 10.4864 16.4126ZM10.5236 21.8468C10.2691 21.8513 9.77295 21.8546 9.40609 21.8566C9.40404 21.227 9.40059 20.1062 9.40059 19.5824C9.40059 19.1438 9.39859 17.9705 9.39748 17.318H10.4864C11.3308 17.318 12.233 17.9145 12.233 19.5884C12.233 20.9005 11.5301 21.8292 10.5236 21.8468Z" fill="#F1F4F6"/>
<path d="M5.92897 16.2466H4.36627C4.24598 16.2466 4.13055 16.2945 4.04565 16.3797C3.96069 16.465 3.91317 16.5804 3.91358 16.7007V22.3114C3.91358 22.5615 4.11625 22.7641 4.36627 22.7641C4.61629 22.7641 4.81897 22.5615 4.81897 22.3114V20.3239C5.18119 20.322 5.67532 20.3196 5.92891 20.3196C7.06891 20.3196 7.99639 19.406 7.99639 18.2831C7.99645 17.1601 7.06897 16.2466 5.92897 16.2466ZM5.92897 19.4141C5.67666 19.4141 5.1894 19.4165 4.82735 19.4184C4.82535 19.0465 4.82149 17.5389 4.82037 17.152H5.92897C6.55891 17.152 7.09106 17.67 7.09106 18.2831C7.091 18.8961 6.55885 19.4141 5.92897 19.4141Z" fill="#F1F4F6"/>
<path d="M25.9147 12.2863H8.73541C8.48539 12.2863 8.28271 12.0836 8.28271 11.8336C8.28271 11.5835 8.48539 11.3809 8.73541 11.3809H25.9146C26.1646 11.3809 26.3673 11.5835 26.3673 11.8336C26.3673 12.0836 26.1647 12.2863 25.9147 12.2863Z" fill="#A3B8BF"/>
<path d="M21.1066 9.29943H8.73541C8.48539 9.29943 8.28271 9.09676 8.28271 8.84674C8.28271 8.59672 8.48539 8.39404 8.73541 8.39404H21.1065C21.3566 8.39404 21.5592 8.59672 21.5592 8.84674C21.5592 9.09676 21.3566 9.29943 21.1066 9.29943Z" fill="#A3B8BF"/>
</svg>
