<svg width="20" height="20" viewBox="0 0 20 20" fill="none" xmlns="http://www.w3.org/2000/svg">
<path d="M3.91127 3.45978C4.10433 3.56843 5.40383 4.19623 6.03163 4.49854C6.03409 4.74221 6.03948 5.16359 6.04775 5.17075C6.11695 5.77415 6.23572 6.44451 6.27013 6.63381C6.21305 6.66546 5.91967 6.85731 5.91967 7.45403C5.91993 7.45739 5.92023 7.4605 5.92049 7.4639C5.92005 7.47955 5.91967 7.49533 5.91967 7.51154C6.04594 9.17013 6.70556 8.45532 6.84159 9.18181C7.06784 10.3897 8.13738 11.2637 8.80312 11.5654C9.1879 11.7397 9.58389 11.8286 10.0001 11.8371C10.4162 11.8286 10.8122 11.7397 11.197 11.5654C11.8627 11.2637 12.9323 10.3897 13.1585 9.18181C13.2945 8.45528 13.9542 9.17013 14.0805 7.51154C14.0805 7.49529 14.0801 7.47955 14.0796 7.4639C14.0799 7.46054 14.0802 7.45744 14.0805 7.45403C14.0805 6.85727 13.787 6.66546 13.73 6.63381C13.7644 6.44451 13.8832 5.77419 13.9524 5.17075C13.9606 5.16359 13.966 4.74225 13.9685 4.49854C14.3133 4.33247 14.8606 4.06832 15.316 3.84586V5.44917C15.1895 5.52384 15.1006 5.65563 15.1006 5.81278C15.1006 5.9519 15.1712 6.06977 15.2741 6.14768C15.2741 6.14768 15.0911 7.17613 15.032 7.47861C14.9728 7.781 16.0753 7.72034 16.0257 7.47861C15.9761 7.23679 15.7837 6.14768 15.7837 6.14768C15.8867 6.06977 15.9573 5.9519 15.9573 5.81278C15.9573 5.65559 15.8687 5.52388 15.7423 5.44917V3.63637C15.912 3.55217 16.0384 3.48815 16.0888 3.45978C16.2254 3.38291 16.299 3.28457 16.2835 3.1824C16.3021 3.07587 16.2251 2.96136 16.0184 2.86013C14.5429 2.13791 10.7814 0.297132 10.4095 0.119724C10.2472 0.0423365 10.1137 0.00814827 10.0001 0C9.88645 0.00814827 9.75289 0.0423365 9.59061 0.119724C9.21868 0.297132 5.4572 2.13795 3.9818 2.86013C3.77499 2.96136 3.69799 3.07587 3.7167 3.1824C3.70109 3.28457 3.77469 3.38291 3.91127 3.45978Z" fill="white"/>
<path d="M15.0076 13.8342C14.3135 13.5839 13.1053 12.8624 12.8983 12.7511C12.8446 12.7199 12.7825 12.7017 12.7159 12.7017C12.5707 12.7017 12.4457 12.787 12.3875 12.9103C11.8151 13.8684 10.7541 16.6545 10.0138 16.7061C10.0092 16.7058 10.0046 16.7049 10 16.7044C9.99545 16.7049 9.99079 16.7058 9.98626 16.7061C9.24593 16.6545 8.18489 13.8684 7.61257 12.9103C7.55433 12.787 7.42934 12.7017 7.2841 12.7017C7.21753 12.7017 7.15541 12.7199 7.10173 12.7511C6.89475 12.8624 5.68652 13.5839 4.99241 13.8342C2.66252 14.6743 1.61462 15.5311 1.61462 16.1153C1.61462 16.1322 1.61462 16.1516 1.61462 16.1728C1.61462 16.8843 1.61462 19.9425 1.61462 19.9425C1.61462 19.9798 1.61462 20 1.61462 20H9.98626H10H10.0138H18.3854C18.3854 20 18.3854 19.9798 18.3854 19.9425C18.3854 19.9425 18.3854 16.8842 18.3854 16.1728C18.3854 16.1516 18.3854 16.1322 18.3854 16.1153C18.3854 15.5311 17.3375 14.6743 15.0076 13.8342Z" fill="white"/>
</svg>
